name analog
datacolumns 19
datarows 33
range 0.516 0.532
endheader
time	ground_force_vx	ground_force_vy	ground_force_vz	ground_force_px	ground_force_py	ground_force_pz	l_ground_force_vx	l_ground_force_vy	l_ground_force_vz	l_ground_force_px	l_ground_force_py	l_ground_force_pz	ground_torque_x	ground_torque_y	ground_torque_z	l_ground_torque_x	l_ground_torque_y	l_ground_torque_z
0.516	-0.0	-0.0	-0.0	11.62339973449707	25.23690795898437	-724.5706176757812	-0.0	-0.0	-0.0	-0.0	-0.0	-0.0	-0.0	-0.0	-0.0	-0.0	-0.0	-0.0
0.5165	-0.0	-0.0	-0.0	10.666094779968262	25.51738166809082	-724.3203735351562	-0.0	-0.0	-0.0	-0.0	-0.0	-0.0	-0.0	-0.0	-0.0	-0.0	-0.0	-0.0
0.517	-0.0	-0.0	-0.0	10.29609489440918	25.747970581054688	-723.7174682617188	-0.0	-0.0	-0.0	-0.0	-0.0	-0.0	-0.0	-0.0	-0.0	-0.0	-0.0	-0.0
0.5175	-0.0	-0.0	-0.0	9.647854804992676	26.317058563232425	-722.3568115234375	-0.0	-0.0	-0.0	-0.0	-0.0	-0.0	-0.0	-0.0	-0.0	-0.0	-0.0	-0.0
0.518	-0.0	-0.0	-0.0	9.099472045898438	26.382598876953125	-722.4092407226562	-0.0	-0.0	-0.0	-0.0	-0.0	-0.0	-0.0	-0.0	-0.0	-0.0	-0.0	-0.0
0.5185	-0.0	-0.0	-0.0	8.41215705871582	26.917381286621094	-721.4944458007812	-0.0	-0.0	-0.0	-0.0	-0.0	-0.0	-0.0	-0.0	-0.0	-0.0	-0.0	-0.0
0.519	-0.0	-0.0	-0.0	7.85052490234375	27.1220645904541	-717.96240234375	-0.0	-0.0	-0.0	-0.0	-0.0	-0.0	-0.0	-0.0	-0.0	-0.0	-0.0	-0.0
0.5195	-0.0	-0.0	-0.0	7.645579814910889	27.85444450378418	-715.7907104492188	-0.0	-0.0	-0.0	-0.0	-0.0	-0.0	-0.0	-0.0	-0.0	-0.0	-0.0	-0.0
0.52	-0.0	-0.0	-0.0	7.658820152282715	27.63419532775879	-713.3858642578125	-0.0	-0.0	-0.0	-0.0	-0.0	-0.0	-0.0	-0.0	-0.0	-0.0	-0.0	-0.0
0.5205	-0.0	-0.0	-0.0	6.869209289550781	28.593505859375	-713.3179931640625	-0.0	-0.0	-0.0	-0.0	-0.0	-0.0	-0.0	-0.0	-0.0	-0.0	-0.0	-0.0
0.521	-0.0	-0.0	-0.0	6.574855327606201	27.964561462402344	-707.8783569335938	-0.0	-0.0	-0.0	-0.0	-0.0	-0.0	-0.0	-0.0	-0.0	-0.0	-0.0	-0.0
0.5215	-0.0	-0.0	-0.0	6.119861602783203	28.75348854064941	-705.9715576171875	-0.0	-0.0	-0.0	-0.0	-0.0	-0.0	-0.0	-0.0	-0.0	-0.0	-0.0	-0.0
0.522	-0.0	-0.0	-0.0	5.928170680999756	29.386205673217773	-705.4254760742188	-0.0	-0.0	-0.0	-0.0	-0.0	-0.0	-0.0	-0.0	-0.0	-0.0	-0.0	-0.0
0.5225	-0.0	-0.0	-0.0	5.557980537414551	29.45339012145996	-702.4614868164062	-0.0	-0.0	-0.0	-0.0	-0.0	-0.0	-0.0	-0.0	-0.0	-0.0	-0.0	-0.0
0.523	-0.0	-0.0	-0.0	5.566293716430664	29.85043334960937	-704.4337158203125	-0.0	-0.0	-0.0	-0.0	-0.0	-0.0	-0.0	-0.0	-0.0	-0.0	-0.0	-0.0
0.5235	-0.0	-0.0	-0.0	4.790309429168701	30.036945343017575	-702.3677368164062	-0.0	-0.0	-0.0	-0.0	-0.0	-0.0	-0.0	-0.0	-0.0	-0.0	-0.0	-0.0
0.524	-0.0	-0.0	-0.0	4.227833271026611	29.94781494140625	-699.6722412109375	-0.0	-0.0	-0.0	-0.0	-0.0	-0.0	-0.0	-0.0	-0.0	-0.0	-0.0	-0.0
0.5245	-0.0	-0.0	-0.0	3.3688220977783203	30.26355361938477	-701.8523559570312	-0.0	-0.0	-0.0	-0.0	-0.0	-0.0	-0.0	-0.0	-0.0	-0.0	-0.0	-0.0
0.525	-0.0	-0.0	-0.0	3.2945730686187744	29.83765411376953	-699.0803833007812	-0.0	-0.0	-0.0	-0.0	-0.0	-0.0	-0.0	-0.0	-0.0	-0.0	-0.0	-0.0
0.5255	-0.0	-0.0	-0.0	3.884248971939087	30.24970054626465	-696.3883056640625	-0.0	-0.0	-0.0	-0.0	-0.0	-0.0	-0.0	-0.0	-0.0	-0.0	-0.0	-0.0
0.526	-0.0	-0.0	-0.0	4.103683471679688	29.3649959564209	-694.5963745117188	-0.0	-0.0	-0.0	-0.0	-0.0	-0.0	-0.0	-0.0	-0.0	-0.0	-0.0	-0.0
0.5265	-0.0	-0.0	-0.0	4.268373012542725	29.07023048400879	-691.2817993164062	-0.0	-0.0	-0.0	-0.0	-0.0	-0.0	-0.0	-0.0	-0.0	-0.0	-0.0	-0.0
0.527	-0.0	-0.0	-0.0	4.974837303161621	29.076852798461918	-688.8644409179688	-0.0	-0.0	-0.0	-0.0	-0.0	-0.0	-0.0	-0.0	-0.0	-0.0	-0.0	-0.0
0.5275	-0.0	-0.0	-0.0	5.0297627449035645	28.07607650756836	-684.1094970703125	-0.0	-0.0	-0.0	-0.0	-0.0	-0.0	-0.0	-0.0	-0.0	-0.0	-0.0	-0.0
0.528	-0.0	-0.0	-0.0	5.428006172180176	27.315370559692383	-677.6182861328125	-0.0	-0.0	-0.0	-0.0	-0.0	-0.0	-0.0	-0.0	-0.0	-0.0	-0.0	-0.0
0.5285	-0.0	-0.0	-0.0	5.687693595886231	26.60840606689453	-671.748291015625	-0.0	-0.0	-0.0	-0.0	-0.0	-0.0	-0.0	-0.0	-0.0	-0.0	-0.0	-0.0
0.529	-0.0	-0.0	-0.0	6.791469097137451	25.900976181030277	-660.7996826171875	-0.0	-0.0	-0.0	-0.0	-0.0	-0.0	-0.0	-0.0	-0.0	-0.0	-0.0	-0.0
0.5295	-0.0	-0.0	-0.0	6.57370138168335	24.867382049560547	-650.1821899414062	13.901001930236816	0.0208922028541564	-25.3801326751709	-0.0	-0.0	-0.0	-0.0	-0.0	-0.0	7938.953125	1101.9410400390625	4256.712890625
0.53	-0.0	-0.0	-0.0	6.5736236572265625	23.56697654724121	-641.4642944335938	5.937414646148682	1.448037028312683	-26.77643394470215	-0.0	-0.0	-0.0	-0.0	-0.0	-0.0	8205.96875	711.1994018554688	1905.611328125
0.5305	-0.0	-0.0	-0.0	6.2115888595581055	22.572887420654297	-632.227294921875	6.235496044158936	0.971538543701172	-40.30802154541016	-0.0	-0.0	-0.0	-0.0	-0.0	-0.0	12333.494140625	2.082869529724121	1444.386474609375
0.531	-0.0	-0.0	-0.0	5.728465080261231	21.88398551940918	-625.6484985351562	16.99463653564453	0.0354828238487243	-62.085968017578125	-0.0	-0.0	-0.0	-0.0	-0.0	-0.0	19351.107421875	-2.434641122817993	4308.02734375
0.5315	-0.0	-0.0	-0.0	5.634342670440674	20.8846492767334	-618.864013671875	17.93343162536621	-3.836551189422608	-96.4318618774414	-0.0	-0.0	-0.0	-0.0	-0.0	-0.0	29237.6640625	-325.4906311035156	4365.8916015625
0.532	-0.0	-0.0	-0.0	5.606142997741699	20.354434967041016	-611.392578125	16.64448356628418	-5.732414722442627	-125.6274185180664	-0.0	-0.0	-0.0	-0.0	-0.0	-0.0	37694.9453125	-1047.31005859375	3944.61572265625
